OpenSim_Sub07_CSStiffKnee_LCS.mot
version=1
nRows=78
nColumns=11
inDegrees=no
endheader
time	Bot_Shank	2nd_Bot_Shank	2nd_Top_Shank	Top_Shank	Bot_Thigh	Med_Thigh	Top_Thigh	BNOx	BNOy	BNOZ
50.50000000	9630.56577030	8881.55062982	10406.40557700	10406.14553230	10678.14047496	11203.15466314	12982.83391980	201.06839012	-71.61250543	158.11244885
50.51000000	9635.00619560	8887.83187500	10413.13140713	10415.96639707	10661.99398423	11176.06867824	12957.97232876	203.92324310	-70.05424465	162.39879731
50.52000000	9639.11479472	8893.73463882	10418.80369184	10424.38405740	10645.93576412	11145.68201227	12935.52982069	206.76436958	-68.51495161	160.45313182
50.53000000	9642.25695992	8898.27207140	10421.96206273	10429.31812370	10630.43527715	11113.84860312	12916.92667217	209.51747091	-67.03450880	154.05684819
50.54000000	9643.79808349	8900.45732290	10421.14615138	10428.68820635	10615.96198584	11082.42238869	12903.58315982	212.10824847	-65.65279873	144.99134219
50.55000000	9643.10355770	8899.30354345	10414.89558939	10420.41391575	10602.98535272	11053.25730690	12896.91956022	214.46240362	-64.40970391	135.03800963
50.56000000	9639.53877482	8893.82388319	10401.75000834	10402.41486230	10591.97484030	11028.20729564	12898.35614996	216.50563774	-63.34510685	125.97824629
50.57000000	9632.66946731	8883.32018567	10380.67809202	10373.16002004	10583.34751383	11008.84809268	12908.95389555	218.17700200	-62.49166162	119.33088929
50.58000000	9623.14496338	8868.65577327	10352.96917288	10334.08974963	10577.23703333	10995.25071267	12927.83033453	219.48775376	-61.84292531	115.19465390
50.59000000	9611.97927081	8851.21947752	10320.69358784	10287.64441938	10573.68167997	10986.97976205	12953.44895163	220.47345103	-61.37929704	113.19031936
50.60000000	9600.18667223	8832.40052593	10285.92226241	10236.26515117	10572.71966306	10983.59946564	12984.27273869	221.16967018	-61.08116607	112.93830477
50.61000000	9588.78145022	8813.58814602	10250.72612205	10182.39306688	10574.38919189	10984.67404826	13018.76468758	221.61198755	-60.92892163	114.05902921
50.62000000	9578.77788741	8796.17156533	10217.17609226	10128.46928840	10578.72847577	10989.76773473	13055.38779012	221.83597948	-60.90295294	116.17291176
50.63000000	9571.19026640	8781.54001137	10187.34309852	10076.93493762	10585.77572399	10998.44474987	13092.60503819	221.87722232	-60.98364924	118.90037152
50.64000000	9567.03286980	8771.08271167	10163.29806632	10030.23113640	10595.56914585	11010.26931850	13128.87942363	221.77129242	-61.15139976	121.86182757
50.65000000	9567.31998021	8766.18889375	10147.11192115	9990.79900665	10608.14695067	11024.80566543	13162.67393828	221.55376611	-61.38659374	124.67769899
50.66000000	9572.90165330	8768.02854680	10140.56115109	9960.77163412	10623.49242704	11041.61137391	13192.60639149	221.25752543	-61.67092639	127.00767897
50.67000000	9583.41420497	8776.15135170	10143.24616782	9940.00552510	10641.18296538	11060.19494165	13218.43879058	220.89553965	-61.99574500	128.80172076
50.68000000	9597.94994940	8789.38076235	10153.79205914	9927.33681625	10660.61403132	11080.04286614	13240.44597583	220.47185310	-62.35672291	130.13987305
50.69000000	9615.59863470	8806.53680705	10170.81931228	9921.59683116	10681.18023238	11100.64154106	13258.90520650	219.99046802	-62.74955391	131.10279818
50.70000000	9635.45000898	8826.43951412	10192.94841445	9921.61689339	10702.27617604	11121.47736010	13274.09374188	219.45538664	-63.16993174	131.77115849
50.71000000	9656.59382036	8847.90891185	10218.79985286	9926.22832654	10723.29646981	11142.03671697	13286.28884125	218.87061119	-63.61355018	132.22561633
50.72000000	9678.11981695	8869.76502854	10246.99411473	9934.26245419	10743.63572119	11161.80600534	13295.76776390	218.24014391	-64.07610299	132.54683405
50.73000000	9699.11774687	8890.82789249	10276.15168727	9944.55059991	10762.68853768	11180.27161891	13302.80776911	217.56798702	-64.55328393	132.81547397
50.74000000	9718.67735824	8909.91753202	10304.89305770	9955.92408730	10779.84952678	11196.91995138	13307.68611616	216.85814276	-65.04078678	133.11219846
50.75000000	9735.88839918	8925.85397542	10331.83871324	9967.21423993	10794.51329599	11211.23739644	13310.68006433	216.11461336	-65.53430528	133.51766984
50.76000000	9749.84061779	8937.45725099	10355.60914110	9977.25238139	10806.07445281	11222.71034778	13312.06687290	215.34140106	-66.02953321	134.11255047
50.77000000	9759.62376219	8943.54738704	10374.82482850	9984.86983526	10813.92760474	11230.82519910	13312.12380117	214.54250808	-66.52216434	134.97750268
50.78000000	9764.52797807	8943.23648313	10388.28258154	9989.07714414	10817.64934649	11235.20343240	13311.17026130	213.72267750	-67.00762460	136.17496378
50.79000000	9765.32447441	8937.79522797	10396.08231313	9990.20939113	10818.16127191	11236.46491683	13309.83720177	212.89212768	-67.47936058	137.63267663
50.80000000	9763.44827714	8929.46179630	10398.90799247	9989.19532233	10816.98780746	11235.67700160	13308.89520250	212.06353101	-67.92993169	139.21801364
50.81000000	9760.33754339	8920.47892649	10397.44634377	9986.96648413	10815.65622317	11233.90914668	13309.11550209	211.24957145	-68.35189317	140.79806245
50.82000000	9757.43043031	8913.08935691	10392.38409124	9984.45442292	10815.69378904	11232.23081202	13311.26933911	210.46293298	-68.73780025	142.23991070
50.83000000	9756.01187571	8909.27475582	10384.39871417	9982.50132616	10818.39473520	11231.58761850	13315.94681895	209.71504267	-69.08127404	143.42733447
50.84000000	9756.23443085	8909.08732023	10374.09936634	9981.28896299	10823.33098130	11232.00993867	13322.39935949	209.00803843	-69.38381306	144.36744770
50.85000000	9757.74310799	8911.71445245	10362.06457778	9980.70310111	10829.30250236	11233.11792808	13329.27837489	208.33989475	-69.65044653	145.12264475
50.86000000	9760.18052531	8916.33947555	10348.87273408	9980.62811196	10835.10563213	11234.52980729	13335.23244913	207.70856645	-69.88622030	145.75558072
50.87000000	9763.18930101	8922.14571262	10335.10222085	9980.94836702	10839.53670437	11235.86379687	13338.91016616	207.11200837	-70.09618024	146.32891072
50.88000000	9766.41205330	8928.31648673	10321.33142367	9981.54823773	10841.39205286	11236.73811738	13338.96010996	206.54817535	-70.28537221	146.90528985
50.89000000	9769.49140036	8934.03512095	10308.13872815	9982.31209556	10839.46801134	11236.77098939	13334.03086449	206.01502222	-70.45884208	147.54737324
50.90000000	9772.06996040	8938.48493838	10296.10251986	9983.12431197	10832.56091359	11235.58063345	13322.77101371	205.51050383	-70.62163571	148.31781597
50.91000000	9773.79035162	8940.84926208	10285.80118442	9983.86925842	10819.46709337	11232.78527014	13303.82914160	205.03257499	-70.77879896	149.27927317
50.92000000	9774.34010101	8940.42065320	10277.73411784	9984.44264935	10799.26945050	11228.05232247	13276.15540283	204.57904772	-70.93501383	150.47563391
50.93000000	9773.73863973	8937.29901051	10271.81693396	9984.82403103	10773.16878716	11221.41285045	13240.92874822	204.14667835	-71.09227306	151.81209456
50.94000000	9772.15415935	8931.94608388	10267.70359370	9985.03052339	10743.31515563	11213.06089722	13200.32708162	203.73175004	-71.25136407	153.13168899
50.95000000	9769.75555316	8924.82533002	10265.04682373	9985.07942358	10711.86308578	11203.19127473	13156.53301890	203.33054374	-71.41306860	154.27715786
50.96000000	9766.71171442	8916.40020563	10263.49935078	9984.98802878	10680.96710748	11191.99879491	13111.72917594	202.93934040	-71.57816838	155.09124185
50.97000000	9763.19153641	8907.13416745	10262.71390153	9984.77363612	10652.78175060	11179.67826971	13068.09816862	202.55442095	-71.74744515	155.41668162
50.98000000	9759.36391240	8897.49067216	10262.34320269	9984.45354279	10629.46154501	11166.42451107	13027.82261282	202.17206636	-71.92168064	155.09621781
50.99000000	9755.39773568	8887.93317650	10262.03998095	9984.04504594	10613.16102058	11152.43233094	12993.08512442	201.78855755	-72.10165658	153.97259111
51.00000000	9751.45824366	8878.88042193	10261.52762954	9983.57023649	10605.58894923	11137.89824735	12965.66172562	201.40112225	-72.28782856	151.96813329
51.01000000	9747.69090007	8870.50929503	10260.91176129	9983.07713376	10606.04309658	11123.02800636	12945.12926316	201.01210910	-72.47888800	149.43566692
51.02000000	9744.23451389	8862.91528713	10260.42662340	9982.62248319	10613.00981423	11108.03045964	12930.32446060	200.62559016	-72.67293264	146.87289440
51.03000000	9741.22788907	8856.19382824	10260.30656005	9982.26303676	10624.97484234	11093.11446120	12920.08348372	200.24563879	-72.86805975	144.77762735
51.04000000	9738.80982957	8850.44034835	10260.78591539	9982.05554647	10640.42392106	11078.48886506	12913.24249834	199.87632835	-73.06236660	143.64767735
51.05000000	9737.11913935	8845.75027747	10262.09903358	9982.05676431	10657.84279055	11064.36252523	12908.63767025	199.52173220	-73.25395049	143.98085600
51.06000000	9736.29462236	8842.21904560	10264.48025878	9982.32344228	10675.71719096	11050.94429573	12905.10516525	199.18592371	-73.44090868	146.27497491
51.07000000	9736.47508258	8839.94208274	10268.16393515	9982.91233238	10692.53286243	11038.44303058	12901.48114915	198.87297622	-73.62133846	151.02784565
51.08000000	9737.79932395	8839.01481889	10273.38440684	9983.88018660	10706.77554512	11027.06758379	12896.60178775	198.58696310	-73.79333710	158.73727985
51.09000000	9740.35588216	8839.46252075	10280.24486960	9985.24844070	10717.19233639	11017.03859087	12889.60125800	198.32893661	-73.95612712	169.62396294
51.10000000	9743.96140291	8840.93095728	10288.13916637	9986.84751269	10723.94395705	11008.64041082	12881.22561341	198.08360855	-74.11501717	182.40966633
51.11000000	9748.34102849	8842.93817908	10296.22241040	9988.44353439	10727.66687691	11002.17884852	12872.76337774	197.83019143	-74.27736417	195.31170823
51.12000000	9753.21983222	8845.00214049	10303.64953504	9989.80258915	10728.99792427	10997.95972499	12865.50348351	197.54789357	-74.45052659	206.54702667
51.13000000	9758.32288741	8846.64079585	10309.57547364	9990.69076034	10728.57392746	10996.28886128	12860.73486328	197.21592334	-74.64186289	214.33255972
51.14000000	9763.37526740	8847.37209951	10313.15515955	9990.87413132	10727.03171480	10997.47207842	12859.74644960	196.81348908	-74.85873154	216.88524543
51.15000000	9768.10204549	8846.71400581	10313.54352611	9990.11878544	10725.00811460	11001.81519745	12863.82717499	196.31979914	-75.10849101	212.42202185
51.16000000	9772.22829503	8844.18446911	10309.89550668	9988.19080608	10723.13995519	11009.62403939	12874.26597201	195.71406186	-75.39849975	199.15982703
51.17000000	9775.47908932	8839.30144373	10301.36603460	9984.85627658	10722.06406488	11021.20442529	12892.35177320	194.97548560	-75.73611623	175.31559903
51.18000000	9777.62405494	8831.70076338	10287.25132662	9979.91688103	10722.44808717	11036.84485394	12919.08244195	194.08740738	-76.12553664	139.56758565
51.19000000	9778.76209476	8821.88946381	10267.89177213	9973.43741509	10725.18740907	11056.70580195	12953.30465873	193.06367782	-76.54758590	94.00340209
51.20000000	9779.13969431	8810.76505608	10244.09576175	9965.60060180	10731.27949286	11080.89036600	12992.90093744	191.93182378	-76.97261390	42.23875208
51.21000000	9779.00403522	8799.22689316	10216.67389369	9956.58972044	10741.72228233	11109.50137212	13035.74924405	190.71943666	-77.37092108	-12.10345266
51.22000000	9778.60229916	8788.17432799	10186.43676614	9946.58805032	10757.51372126	11142.64164635	13079.72754449	189.45410784	-77.71280792	-65.40030041
51.23000000	9778.18166775	8778.50671351	10154.19497728	9935.77887074	10779.65175345	11180.41401469	13122.71380473	188.16342870	-77.96857487	-114.02887948
51.24000000	9777.98932267	8771.12340267	10120.75912532	9924.34546099	10809.13432266	11222.92130319	13162.58599071	186.87499064	-78.10852239	-154.36627815
51.25000000	9778.23123752	8766.82585303	10086.99367045	9912.55781155	10846.68791702	11270.11179603	13197.43378893	185.61307748	-78.10723047	-183.23321396
51.26000000	9778.80883276	8765.69201393	10054.16114669	9901.32676268	10891.03279762	11320.79161657	13226.91163299	184.37752810	-77.97090755	-200.72910195
51.27000000	9779.48702723	8767.47555621	10023.70250594	9891.85038538	10939.99002862	11373.25496835	13251.37528078	183.15722508	-77.71993801	-208.42287908
